<svg xmlns="http://www.w3.org/2000/svg" xmlns:xlink="http://www.w3.org/1999/xlink" xmlns:drawsvg="http://www.drawsvg.org" width="100%" height="100%" viewBox="0 0 840 460" preserveAspectRatio="xMinYMin meet" ><defs id="drawsvgConstraints"/><rect id="svgEditorBackground" x="0" y="0" width="840" height="460" style="fill:none; stroke: none;"/><text style="fill:#0000FF;font-family:Arial;font-size:14px;" x="437.016" y="213.041" id="result_1" class="groups">You Win</text><text style="fill:#FF60FF;font-family:Arial;font-size:14px;" x="449.028" y="223.038" id="result_0" class="groups">Draw</text><text style="fill:orangered;font-family:Arial;font-size:14px;" x="435.017" y="233.036" id="result_-1" class="groups">You Lose</text><g style="fill:rosybrown; stroke:black; vector-effect:non-scaling-stroke;stroke-width:1px;" id="e10_shape" transform="matrix(0.295646 -0.00188896 0.00185407 0.30121 562.755 180.881)"><path d="M83.533-0.034c-0.48-0.236-1.077-0.056-1.334 0.431l-5.148 9.899c-4.032-1.585-8.419-2.461-12.994-2.461-4.588 0-9.020 0.877-12.996 2.461l-5.187-9.9c-0.216-0.487-0.869-0.667-1.363-0.431-0.417 0.264-0.619 0.862-0.382 1.376l5.060 9.719c-11.314 5.103-19.532 15.951-21.012 28.843h71.716c-1.449-12.892-9.694-23.741-21.034-28.843l5.124-9.718c0.18-0.514 0.014-1.112-0.451-1.376zM48.022 33.686c-3.184 0-5.805-2.558-5.805-5.798 0-3.226 2.621-5.784 5.805-5.784 3.156 0 5.812 2.558 5.812 5.784 0 3.24-2.655 5.798-5.812 5.798zM80.078 22.104c3.17 0 5.77 2.558 5.77 5.784 0 3.24-2.6 5.798-5.77 5.798-3.181 0-5.864-2.558-5.864-5.798 0-3.225 2.683-5.784 5.864-5.784z"/><path d="M112.109 39.905c-4.401 0-8.043 3.615-8.043 8.009v32.069c0 4.366 3.643 7.966 8.043 7.966 4.408 0 7.957-3.601 7.957-7.966v-32.069c0-4.394-3.549-8.009-7.957-8.009z"/><path d="M28.025,91.968c0,6.65,5.367,12.017,11.974,12.017h4.046v16.049c0,4.394,3.58,7.966,7.931,7.966c4.47,0,8.075,-3.573,8.075,-7.966v-16.049h7.967v16.049c0,4.394,3.629,7.966,8.064,7.966c4.349,0,7.978,-3.573,7.978,-7.966v-16.049h3.997c6.646,0,12.017,-5.367,12.017,-12.017v-44.054h-72.050v44.054Z"/><path d="M15.953 39.905c-4.408 0-7.953 3.615-7.953 8.009v32.069c0 4.366 3.545 7.966 7.953 7.966 4.438 0 8.047-3.601 8.047-7.966v-32.069c0-4.394-3.609-8.009-8.047-8.009z"/></g><path d="M497.480946,495.753118h-24c-4.419,0-8-3.581-8-8v-4.291c9.562-5.534,16-15.866,16-27.709v-16c0-17.673-14.327-32-32-32s-32,14.327-32,32v16c0,11.843,6.438,22.174,16,27.709v4.291c0,4.419-3.581,8-8,8h-24c-8.836,0-16,7.163-16,16v14.222c0,5.4,4.378,9.778,9.778,9.778h108.445c5.4,0,9.778-4.378,9.778-9.778v-14.222c0-8.837-7.163-16-16-16Z" style="fill:rosybrown; stroke:black; vector-effect:non-scaling-stroke;stroke-width:1px;" id="e12_shape" transform="matrix(0.273962 -0.00535713 0.005744 0.278913 207.881 68.1756)"/><circle id="newpair#0_r" cx="305.058000" cy="242.057000" style="fill:lightgray;stroke:black;stroke-width:1px;" r="14.809800" class="groups"/><circle id="newpair#1_r" cx="608.0024305118822" cy="145" style="fill:lightgray;stroke:black;stroke-width:1px;" r="14.4982" transform="matrix(1 0 0 1 -50.0302 98.0593)" class="groups"/><text style="fill:black;font-family:Arial;font-size:20px;" x="195" y="195" id="e14_texte"/><rect x="323.058000" y="227.057000" style="fill:lightyellow;stroke:black;stroke-width:1px;" id="newpair#0_p" width="21.997600" height="27.999400" class="groups"/><rect x="624" y="130" style="fill:lightyellow;stroke:black;stroke-width:1px;" id="newpair#1_p" width="20.9976" height="27.9994" transform="matrix(1 0 0 1 -50.0302 98.0593)" class="groups"/><path d="M347.056257,254.056861L362.056257,226.056861L375.056257,254.056861Z" style="fill:#FFF0F5;stroke:black;stroke-width:1px;" id="newpair#0_s" class="groups"/><text style="fill:black;font-family:Arial;font-size:20px;" x="244" y="148" id="e34_texte"/><text style="fill:black;font-family:Arial;font-size:12px;" x="323.717" y="171.634" id="e35_texte">You</text><text style="fill:black;font-family:Arial;font-size:12px;" x="608.882" y="77.573" id="e36_texte" transform="matrix(1 0 0 1 -50.0302 98.0593)">machine</text><path d="M6.776273,6.303261v-1.5a2,2,0,0,0,-2-2h-4a2,2,0,0,0,-2,2v3a2,2,0,0,0,2,2h4a2,2,0,0,0,2-2Z" style="fill:none; stroke:black; vector-effect:non-scaling-stroke;stroke-width:1px;" id="e37_shape" transform="matrix(8.74363 0 0 8.74363 438.199 160.93)"/><path d="M597.207483,249.053836l15,-28l13,28Z" style="fill:#FFF0F5;stroke:black;stroke-width:1px;" id="newpair#1_s" transform="matrix(1 0 0 1 -1.0006 5.00302)" class="groups"/></svg>