<svg xmlns="http://www.w3.org/2000/svg" xmlns:xlink="http://www.w3.org/1999/xlink" width="100%" height="100%" viewBox="0 0 830 460" preserveAspectRatio="xMinYMin meet" ><rect id="svgEditorBackground" x="0" y="0" width="830" height="460" style="fill: none; stroke: none;"/><defs id="svgEditorDefs"><pattern height="10" id="sun-gold-usr" patternUnits="userSpaceOnUse" viewBox="-20 -20 168 168" width="10" x="0" y="0"><path d="M72 16.677v-8.677c0-4.419-3.581-8-8-8s-8 3.581-8 8v8.677c2.603-0.436 5.273-0.677 8-0.677s5.397 0.24 8 0.677z" style="fill:gold;stroke:none;"/><path d="M18.745 109.255c3.125 3.124 8.189 3.124 11.314 0l6.139-6.139c-4.373-3.114-8.199-6.941-11.314-11.314l-6.139 6.139c-3.123 3.123-3.123 8.189 0 11.314z" style="fill:gold;stroke:none;"/><path d="M56 111.323v8.677c0 4.419 3.581 8 8 8s8-3.581 8-8v-8.677c-2.603 0.436-5.273 0.677-8 0.677s-5.397-0.24-8-0.677z" style="fill:gold;stroke:none;"/><path d="M36.197 24.884l-6.139-6.139c-3.125-3.124-8.189-3.124-11.314 0s-3.124 8.189 0 11.314l6.139 6.139c3.115-4.374 6.941-8.2 11.314-11.314z" style="fill:gold;stroke:none;"/><path d="M8 72h8.677c-0.437-2.603-0.677-5.273-0.677-8s0.239-5.397 0.677-8h-8.677c-4.419 0-8 3.581-8 8s3.581 8 8 8z" style="fill:gold;stroke:none;"/><path d="M120 56h-8.677c0.437 2.603 0.677 5.273 0.677 8s-0.239 5.397-0.677 8h8.677c4.419 0 8-3.581 8-8s-3.581-8-8-8z" style="fill:gold;stroke:none;"/><path d="M109.255 18.745c-3.124-3.124-8.189-3.124-11.314 0l-6.139 6.139c4.373 3.114 8.199 6.941 11.314 11.314l6.139-6.139c3.123-3.123 3.123-8.189 0-11.314z" style="fill:gold;stroke:none;"/><path d="M109.255 109.255c3.124-3.124 3.124-8.189 0-11.314l-6.139-6.139c-3.114 4.373-6.941 8.2-11.314 11.314l6.139 6.139c3.123 3.123 8.189 3.123 11.314 0z" style="fill:gold;stroke:none;"/><path d="M104 64c0 22.091-17.909 40-40 40s-40-17.909-40-40c0-22.091 17.909-40 40-40s40 17.909 40 40z" style="fill:gold;stroke:none;"/></pattern></defs><g style="fill:rosybrown; stroke:black; vector-effect:non-scaling-stroke;stroke-width:1px;" id="e1_shape" transform="matrix(0.47886 0 0 0.47886 59.0839 146.348)"><path d="M72,16.677v-8.677c0,-4.419,-3.581,-8,-8,-8s-8,3.581,-8,8v8.677c2.603,-0.436,5.273,-0.677,8,-0.677s5.397,0.24,8,0.677Z" style="fill:#FFFF00;"/><path d="M18.745,109.255c3.125,3.124,8.189,3.124,11.314,0l6.139,-6.139c-4.373,-3.114,-8.199,-6.941,-11.314,-11.314l-6.139,6.139c-3.123,3.123,-3.123,8.189,0,11.314Z" style="fill:yellow;"/><path d="M56,111.323v8.677c0,4.419,3.581,8,8,8s8,-3.581,8,-8v-8.677c-2.603,0.436,-5.273,0.677,-8,0.677s-5.397,-0.24,-8,-0.677Z" style="fill:yellow;"/><path d="M36.197,24.884l-6.139,-6.139c-3.125,-3.124,-8.189,-3.124,-11.314,0s-3.124,8.189,0,11.314l6.139,6.139c3.115,-4.374,6.941,-8.2,11.314,-11.314Z" style="fill:yellow;"/><path d="M8,72h8.677c-0.437,-2.603,-0.677,-5.273,-0.677,-8s0.239,-5.397,0.677,-8h-8.677c-4.419,0,-8,3.581,-8,8s3.581,8,8,8Z" style="fill:yellow;"/><path d="M120,56h-8.677c0.437,2.603,0.677,5.273,0.677,8s-0.239,5.397,-0.677,8h8.677c4.419,0,8,-3.581,8,-8s-3.581,-8,-8,-8Z" style="fill:yellow;"/><path d="M109.255,18.745c-3.124,-3.124,-8.189,-3.124,-11.314,0l-6.139,6.139c4.373,3.114,8.199,6.941,11.314,11.314l6.139,-6.139c3.123,-3.123,3.123,-8.189,0,-11.314Z" style="fill:yellow;"/><path d="M109.255,109.255c3.124,-3.124,3.124,-8.189,0,-11.314l-6.139,-6.139c-3.114,4.373,-6.941,8.2,-11.314,11.314l6.139,6.139c3.123,3.123,8.189,3.123,11.314,0Z" style="fill:yellow;"/><path d="M104,64c0,22.091,-17.909,40,-40,40s-40,-17.909,-40,-40c0,-22.091,17.909,-40,40,-40s40,17.909,40,40Z" style="fill:yellow;"/></g><g style="fill:rosybrown; stroke:black; vector-effect:non-scaling-stroke;stroke-width:1px;" id="e2_shape" transform="matrix(0.449335 0 0 0.449335 133.766 146.732)"/><g style="fill:rosybrown; stroke:black; vector-effect:non-scaling-stroke;stroke-width:1px;" id="e3_shape" transform="matrix(0.46258 0 0 0.46258 198.857 147.544)"><path d="M100,32c-0.076,0,-0.15,0.005,-0.226,0.005c-1.987,-18.002,-17.243,-32.005,-35.774,-32.005s-33.787,14.004,-35.774,32.005c-0.076,0,-0.15,-0.005,-0.226,-0.005c-15.464,0,-28,12.536,-28,28s12.536,28,28,28h72c15.464,0,28,-12.536,28,-28s-12.536,-28,-28,-28Z" style="fill:snow;"/><path d="M16.032,108c0,2.209,1.791,4,4,4h9.039l-4.519,7.829c-1.104,1.913,-0.449,4.36,1.464,5.464c0.63,0.364,1.317,0.537,1.997,0.537c1.382,0,2.726,-0.717,3.468,-2l4.519,-7.828l4.519,7.828c0.741,1.284,2.086,2,3.468,2c0.679,0,1.366,-0.172,1.996,-0.537c1.913,-1.104,2.569,-3.551,1.464,-5.464l-4.518,-7.829h9.039c2.209,0,4,-1.791,4,-4s-1.791,-4,-4,-4h-9.039l4.519,-7.829c1.104,-1.913,0.449,-4.36,-1.464,-5.464s-4.359,-0.45,-5.464,1.464l-4.519,7.828l-4.519,-7.828c-1.106,-1.914,-3.551,-2.568,-5.464,-1.464s-2.569,3.551,-1.464,5.464l4.519,7.829h-9.040c-2.209,0,-4,1.791,-4,4Z" style="fill:snow;"/><path d="M72.032,108c0,2.209,1.791,4,4,4h9.039l-4.519,7.829c-1.104,1.913,-0.449,4.36,1.464,5.464c0.63,0.364,1.317,0.537,1.996,0.537c1.382,0,2.726,-0.717,3.468,-2l4.519,-7.828l4.519,7.828c0.741,1.284,2.086,2,3.468,2c0.679,0,1.366,-0.172,1.996,-0.537c1.913,-1.104,2.569,-3.551,1.464,-5.464l-4.518,-7.829h9.039c2.209,0,4,-1.791,4,-4s-1.791,-4,-4,-4h-9.039l4.519,-7.829c1.104,-1.913,0.449,-4.36,-1.464,-5.464s-4.359,-0.45,-5.464,1.464l-4.519,7.828l-4.519,-7.828c-1.105,-1.914,-3.551,-2.568,-5.464,-1.464s-2.569,3.551,-1.464,5.464l4.519,7.829h-9.040c-2.209,0,-4,1.791,-4,4Z" style="fill:snow;"/></g><g style="fill:rosybrown; stroke:black; vector-effect:non-scaling-stroke;stroke-width:1px;" id="e4_shape" transform="matrix(0.445192 0 0 0.445192 265.529 148.812)"><path d="M25.552,116.73c0.090,0.122,0.181,0.241,0.276,0.356c0.076,0.093,0.155,0.184,0.236,0.274c0.091,0.1,0.185,0.2,0.28,0.295s0.195,0.189,0.296,0.28c0.090,0.081,0.18,0.16,0.274,0.237c0.116,0.095,0.235,0.187,0.357,0.276c0.089,0.065,0.178,0.129,0.268,0.189c0.133,0.089,0.269,0.173,0.41,0.256c0.091,0.053,0.183,0.108,0.277,0.157c0.136,0.074,0.274,0.139,0.413,0.203c0.108,0.051,0.216,0.101,0.326,0.147c0.119,0.049,0.239,0.091,0.359,0.133c0.131,0.047,0.263,0.094,0.398,0.134c0.102,0.031,0.205,0.054,0.308,0.081c0.15,0.038,0.299,0.076,0.451,0.106c0.099,0.019,0.198,0.032,0.298,0.047c0.154,0.024,0.307,0.048,0.461,0.062c0.114,0.011,0.227,0.014,0.341,0.019c0.138,0.007,0.276,0.016,0.415,0.016s0.277,-0.009,0.415,-0.016c0.114,-0.005,0.227,-0.009,0.341,-0.019c0.155,-0.015,0.309,-0.038,0.461,-0.062c0.099,-0.015,0.199,-0.028,0.298,-0.047c0.152,-0.029,0.302,-0.069,0.452,-0.107c0.103,-0.026,0.206,-0.050,0.309,-0.080c0.134,-0.040,0.266,-0.088,0.398,-0.134c0.12,-0.043,0.241,-0.085,0.359,-0.133c0.11,-0.045,0.218,-0.096,0.326,-0.147c0.138,-0.064,0.276,-0.13,0.411,-0.203c0.094,-0.050,0.186,-0.104,0.277,-0.157c0.139,-0.082,0.276,-0.167,0.409,-0.256c0.091,-0.061,0.179,-0.124,0.269,-0.189c0.122,-0.090,0.241,-0.181,0.357,-0.276c0.093,-0.076,0.184,-0.156,0.273,-0.237c0.101,-0.091,0.2,-0.185,0.296,-0.28s0.188,-0.194,0.28,-0.295c0.081,-0.090,0.16,-0.181,0.236,-0.274c0.095,-0.115,0.187,-0.235,0.276,-0.356c0.065,-0.089,0.129,-0.178,0.189,-0.269c0.089,-0.132,0.173,-0.27,0.255,-0.409c1.385,-2.362,1.528,-5.369,0.102,-7.935l-6.993,-12.588l-6.994,12.588c-1.426,2.566,-1.282,5.573,0.103,7.935c0.082,0.139,0.166,0.276,0.255,0.409c0.062,0.091,0.126,0.18,0.191,0.269Z" style="fill:snow;"/><path d="M57.552,116.73c0.090,0.122,0.181,0.241,0.276,0.356c0.077,0.093,0.156,0.184,0.236,0.274c0.092,0.1,0.185,0.2,0.28,0.295s0.195,0.189,0.296,0.28c0.090,0.081,0.181,0.16,0.274,0.237c0.115,0.095,0.235,0.187,0.356,0.276c0.089,0.065,0.178,0.129,0.269,0.189c0.133,0.089,0.269,0.173,0.41,0.256c0.092,0.053,0.183,0.108,0.277,0.157c0.136,0.074,0.274,0.139,0.413,0.203c0.108,0.051,0.216,0.101,0.326,0.147c0.119,0.049,0.239,0.091,0.359,0.133c0.132,0.047,0.263,0.094,0.398,0.134c0.102,0.031,0.205,0.054,0.309,0.081c0.15,0.038,0.3,0.076,0.452,0.106c0.099,0.019,0.198,0.032,0.298,0.047c0.154,0.024,0.307,0.048,0.461,0.062c0.114,0.011,0.227,0.014,0.341,0.019c0.138,0.007,0.276,0.016,0.415,0.016s0.277,-0.009,0.415,-0.016c0.114,-0.005,0.228,-0.009,0.341,-0.019c0.155,-0.015,0.308,-0.038,0.461,-0.062c0.1,-0.015,0.199,-0.028,0.298,-0.047c0.152,-0.029,0.302,-0.069,0.451,-0.107c0.103,-0.026,0.206,-0.050,0.308,-0.080c0.134,-0.040,0.266,-0.088,0.398,-0.134c0.12,-0.043,0.241,-0.085,0.359,-0.133c0.11,-0.045,0.218,-0.096,0.326,-0.147c0.138,-0.064,0.276,-0.13,0.412,-0.203c0.094,-0.050,0.186,-0.104,0.277,-0.157c0.139,-0.082,0.276,-0.167,0.409,-0.256c0.091,-0.061,0.18,-0.124,0.269,-0.189c0.122,-0.090,0.241,-0.181,0.357,-0.276c0.093,-0.076,0.184,-0.156,0.273,-0.237c0.101,-0.091,0.2,-0.185,0.296,-0.28s0.189,-0.194,0.28,-0.295c0.081,-0.090,0.16,-0.181,0.237,-0.274c0.095,-0.115,0.187,-0.235,0.276,-0.356c0.065,-0.089,0.129,-0.178,0.189,-0.269c0.089,-0.132,0.173,-0.27,0.255,-0.409c1.385,-2.362,1.528,-5.369,0.102,-7.935l-6.993,-12.588l-6.994,12.588c-1.426,2.566,-1.282,5.573,0.103,7.935c0.082,0.139,0.166,0.276,0.255,0.409c0.062,0.091,0.126,0.18,0.191,0.269Z" style="fill:snow;"/><path d="M89.555,116.73c0.090,0.122,0.181,0.241,0.276,0.356c0.076,0.093,0.156,0.184,0.237,0.274c0.091,0.1,0.185,0.2,0.28,0.295s0.195,0.189,0.296,0.28c0.090,0.081,0.18,0.16,0.274,0.237c0.115,0.095,0.235,0.187,0.356,0.276c0.089,0.065,0.178,0.129,0.269,0.189c0.132,0.089,0.269,0.173,0.41,0.256c0.091,0.053,0.183,0.108,0.277,0.157c0.136,0.074,0.274,0.139,0.412,0.203c0.109,0.051,0.216,0.101,0.326,0.147c0.119,0.049,0.239,0.091,0.359,0.133c0.132,0.047,0.264,0.094,0.398,0.134c0.102,0.031,0.205,0.054,0.308,0.081c0.15,0.038,0.299,0.076,0.451,0.106c0.1,0.019,0.198,0.032,0.298,0.047c0.154,0.024,0.307,0.048,0.461,0.062c0.114,0.011,0.228,0.014,0.341,0.019c0.138,0.007,0.276,0.016,0.415,0.016s0.277,-0.009,0.415,-0.016c0.114,-0.005,0.228,-0.009,0.341,-0.019c0.155,-0.015,0.308,-0.038,0.461,-0.062c0.1,-0.015,0.199,-0.028,0.298,-0.047c0.152,-0.029,0.302,-0.069,0.451,-0.107c0.103,-0.026,0.206,-0.050,0.308,-0.080c0.134,-0.040,0.266,-0.088,0.398,-0.134c0.12,-0.043,0.241,-0.085,0.359,-0.133c0.11,-0.045,0.218,-0.096,0.326,-0.147c0.138,-0.064,0.276,-0.13,0.412,-0.203c0.094,-0.050,0.186,-0.104,0.277,-0.157c0.139,-0.082,0.277,-0.167,0.41,-0.256c0.091,-0.061,0.18,-0.124,0.269,-0.189c0.122,-0.090,0.241,-0.181,0.356,-0.276c0.093,-0.076,0.184,-0.156,0.274,-0.237c0.101,-0.091,0.2,-0.185,0.296,-0.28s0.189,-0.194,0.28,-0.295c0.081,-0.090,0.16,-0.181,0.237,-0.274c0.095,-0.115,0.187,-0.235,0.276,-0.356c0.065,-0.089,0.129,-0.178,0.189,-0.269c0.089,-0.132,0.173,-0.27,0.255,-0.409c1.385,-2.362,1.528,-5.369,0.102,-7.935l-6.993,-12.588l-6.994,12.588c-1.426,2.566,-1.282,5.573,0.103,7.935c0.082,0.139,0.166,0.276,0.255,0.409c0.062,0.091,0.126,0.18,0.19,0.269Z" style="fill:snow;"/><path d="M28,88h72c15.464,0,28,-12.536,28,-28s-12.536,-28,-28,-28c-0.076,0,-0.15,0.005,-0.226,0.005c-1.987,-18.002,-17.243,-32.005,-35.774,-32.005s-33.787,14.004,-35.774,32.005c-0.076,0,-0.15,-0.005,-0.226,-0.005c-15.464,0,-28,12.536,-28,28s12.536,28,28,28Z" style="fill:gainsboro;"/></g><path d="M-447.576921-0.854446c-.,0-0.15,.-0.226,.c-1.987-18.002-17.243-32.005-35.774-32.005s-33.787,14.004-35.774,32.005c-.,0-0.15-.-0.226-.c-15.464,0-28,12.536-28,28s12.536,28,28,28h72c15.464,0,28-12.536,28-28s-12.536-28-28-28Z" style="fill:rosybrown; stroke:black; vector-effect:non-scaling-stroke;stroke-width:1px;" id="e5_shape" transform="matrix(0.488071 0 0 0.488071 596.965 160.769)"/><g style="fill:rosybrown; stroke:black; vector-effect:non-scaling-stroke;stroke-width:1px;" id="e6_shape" transform="matrix(0.42173 0.00483616 -0.00483616 0.42173 330.781 142.56)"><path d="M28,112h72c15.464,0,28,-12.536,28,-28s-12.536,-28,-28,-28c-0.076,0,-0.15,0.005,-0.226,0.005c-1.987,-18.002,-17.243,-32.005,-35.774,-32.005s-33.787,14.004,-35.774,32.005c-0.076,0,-0.15,-0.005,-0.226,-0.005c-15.464,0,-28,12.536,-28,28s12.536,28,28,28Z" style="fill:ghostwhite;"/><path d="M21.497,48.589c4.221,-15.855,16.955,-27.96,32.818,-31.514c-5.764,-5.613,-13.634,-9.075,-22.315,-9.075c-17.673,0,-32,14.327,-32,32c0,6.088,1.7,11.778,4.652,16.623c4.723,-4.033,10.494,-6.871,16.845,-8.035Z" style="fill:ghostwhite;"/></g><g style="fill:rosybrown; stroke:black; vector-effect:non-scaling-stroke;stroke-width:1px;" id="e7_shape" transform="matrix(0.433841 0 0 0.433841 135.749 149.707)"><path d="M40,112v16l16,-24h-16v-16l-16,24Z" style="fill:lightgray;"/><path d="M128,60c0,-15.464,-12.536,-28,-28,-28c-0.076,0,-0.15,0.005,-0.226,0.005c-1.987,-18.002,-17.243,-32.005,-35.774,-32.005s-33.787,14.004,-35.774,32.005c-0.076,0,-0.15,-0.005,-0.226,-0.005c-15.464,0,-28,12.536,-28,28s12.536,28,28,28h72c15.464,0,28,-12.536,28,-28Z" style="fill:lightgray;"/><path d="M72,112h16v16l16,-24h-16v-16Z" style="fill:lightgray;"/></g><text style="fill:black;font-family:Arial;font-size:14px;" x="71.3975" y="234.026" id="e8_texte">temp.</text><text style="fill:black;font-family:Arial;font-size:14px;" x="341.123" y="232.044" id="e1_texte">temp.</text><text style="fill:black;font-family:Arial;font-size:14px;" x="277.658" y="232.043" id="e2_texte">temp.</text><text style="fill:black;font-family:Arial;font-size:14px;" x="210.227" y="234.026" id="e3_texte">temp.</text><text style="fill:black;font-family:Arial;font-size:14px;" x="144.779" y="234.025" id="e4_texte">temp.</text></svg>